{"title":"Six.Nations.Rugby.Highlights.Weekend.5-2013-03-18-720p.x264","uid":8278668,"size":1216858375,"categoryP":"video","categoryS":"hd___tv_shows","magnet":"?xt=urn:btih:4d15747c0b9f77b449ec0b56518a1a5633f9efc5&amp;dn=Six.Nations.Rugby.Highlights.Weekend.5-2013-03-18-720p.x264&amp;tr=udp%3A%2F%2Ftracker.openbittorrent.com%3A80&amp;tr=udp%3A%2F%2Fopen.demonii.com%3A1337&amp;tr=udp%3A%2F%2Ftracker.coppersurfer.tk%3A6969&amp;tr=udp%3A%2F%2Fexodus.desync.com%3A6969","seeders":1,"leechers":1,"uploader":"rugbybill","files":4,"time":1363739974,"description":"SPORT: Six Nations Rugby Highlights\nOn: BBC HD\nDate: Monday 18th March 2013\nTime: 00:00 to 00:45 \n\nThe best of the action and reaction from the final weekend of the 2013 Six Nations, as Ireland travel to Rome to play Italy, reigning champions Wales take on England at the Millennium Stadium and Scotland face France in Paris.\n\n[1.13Gb, 44mins, 1280x720[16:9], 3549Kbps, x264/mp4/720p; Audio: AAC-LC, 124Kbps]\n\nGeneral\nComplete name: 2013.03.18.6N.Highlights.720p.x264.mp4\nFormat : MPEG-4\nFormat profile : Base Media\nCodec ID : isom\nFile size: 1.13 GiB\nDuration : 44mn 4s\nOverall bit rate mode: Variable\nOverall bit rate : 3 677 Kbps\n\nVideo\nID : 1\nFormat : AVC\nFormat/Info: Advanced Video Codec\nFormat profile : &lt;a class=&quot;__cf_email__&quot; href=&quot;/cdn-cgi/l/email-protection&quot; data-cfemail=&quot;4901202e2109057d6778&quot;&gt;[email&amp;#160;protected]&lt;/a&gt;&lt;script cf-hash='f9e31' type=&quot;text/javascript&quot;&gt;\n/* &lt;![CDATA[ */!function(){try{var t=&quot;currentScript&quot;in document?document.currentScript:function(){for(var t=document.getElementsByTagName(&quot;script&quot;),e=t.length;e--;)if(t[e].getAttribute(&quot;cf-hash&quot;))return t[e]}();if(t&amp;&amp;t.previousSibling){var e,r,n,i,c=t.previousSibling,a=c.getAttribute(&quot;data-cfemail&quot;);if(a){for(e=&quot;&quot;,r=parseInt(a.substr(0,2),16),n=2;a.length-n;n+=2)i=parseInt(a.substr(n,2),16)^r,e+=String.fromCharCode(i);e=document.createTextNode(e),c.parentNode.replaceChild(e,c)}}}catch(u){}}();/* ]]&gt; */&lt;/script&gt;\nFormat settings, CABAC : Yes\nFormat settings, ReFrames: 5 frames\nCodec ID : avc1\nCodec ID/Info: Advanced Video Coding\nDuration : 44mn 4s\nBit rate : 3 549 Kbps\nMaximum bit rate : 12.1 Mbps\nWidth: 1 280 pixels\nHeight : 720 pixels\nDisplay aspect ratio : 16:9\nFrame rate mode: Constant\nFrame rate : 25.000 fps\nColor space: YUV\nChroma subsampling : 4:2:0\nBit depth: 8 bits\nScan type: Progressive\nBits/(Pixel*Frame) : 0.154\nStream size: 1.09 GiB (97%)\nWriting library: x264 core 130 r2273 b3065e6\n\nAudio\nID : 2\nFormat : AAC\nFormat/Info: Advanced Audio Codec\nFormat profile : LC\nCodec ID : 40\nDuration : 44mn 4s\nBit rate mode: Variable\nBit rate : 124 Kbps\nMaximum bit rate : 130 Kbps\nChannel(s) : 2 channels\nChannel positions: Front: L R\nSampling rate: 48.0 KHz\nCompression mode : Lossy\nDelay relative to video: 80ms\nStream size: 39.1 MiB (3%)\nLanguage : English","torrent":{"xt":"urn:btih:4d15747c0b9f77b449ec0b56518a1a5633f9efc5","amp;dn":"Six.Nations.Rugby.Highlights.Weekend.5-2013-03-18-720p.x264","amp;tr":["udp%3A%2F%2Ftracker.openbittorrent.com%3A80","udp%3A%2F%2Fopen.demonii.com%3A1337","udp%3A%2F%2Ftracker.coppersurfer.tk%3A6969","udp%3A%2F%2Fexodus.desync.com%3A6969"],"infoHash":"4d15747c0b9f77b449ec0b56518a1a5633f9efc5","infoHashBuffer":{"type":"Buffer","data":[77,21,116,124,11,159,119,180,73,236,11,86,81,138,26,86,51,249,239,197]},"announce":[],"urlList":[]}}